<?xml version="1.0" standalone="no"?>
<!DOCTYPE svg PUBLIC "-//W3C//DTD SVG 20010904//EN"
 "http://www.w3.org/TR/2001/REC-SVG-20010904/DTD/svg10.dtd">
<svg version="1.0" xmlns="http://www.w3.org/2000/svg"
 width="100.000000pt" height="100.000000pt" viewBox="0 0 100.000000 100.000000"
 preserveAspectRatio="xMidYMid meet">
<metadata>
Created by potrace 1.14, written by Peter Selinger 2001-2017
</metadata>
<g transform="translate(0.000000,100.000000) scale(0.100000,-0.100000)"
fill="#000000" stroke="none">
<path d="M337 930 c-95 -24 -178 -94 -224 -188 -24 -49 -28 -69 -28 -142 0
-73 4 -93 28 -142 36 -72 98 -134 167 -167 45 -21 70 -26 140 -26 72 0 94 5
144 28 l60 28 126 -126 c69 -69 130 -125 135 -125 14 0 47 39 43 50 -2 5 -58
65 -126 133 l-123 125 30 47 c105 165 34 399 -146 482 -59 27 -166 38 -226 23z
m217 -64 c178 -87 219 -329 80 -471 -63 -66 -121 -90 -214 -90 -63 0 -86 5
-133 29 -107 52 -176 175 -164 292 22 212 240 333 431 240z"/>
<path d="M314 799 c-3 -5 -18 -9 -35 -9 -40 0 -38 -26 3 -34 17 -3 34 -2 37 2
8 12 109 13 117 1 4 -6 11 -6 20 2 10 8 25 9 53 2 40 -11 68 -3 57 15 -3 5
-20 13 -38 17 -46 11 -208 14 -214 4z"/>
<path d="M250 581 c0 -175 -3 -171 151 -171 92 0 110 3 133 21 15 12 26 30 26
45 0 16 6 24 16 24 34 0 54 40 54 105 0 64 -11 85 -43 85 -11 0 -25 7 -32 16
-8 12 -20 15 -38 10 -22 -5 -26 -12 -29 -49 -4 -51 -32 -61 -34 -12 -2 60 -4
67 -16 63 -7 -3 -15 -17 -18 -33 -6 -36 -30 -46 -30 -13 0 37 -19 48 -82 48
l-58 0 0 -139z m65 -7 c0 -72 -3 -89 -15 -89 -12 0 -16 17 -18 79 -3 87 1 110
21 103 8 -2 12 -30 12 -93z m275 22 c0 -39 -4 -55 -15 -60 -12 -4 -15 5 -15
54 0 47 3 60 15 60 11 0 15 -13 15 -54z"/>
</g>
</svg>
